<svg id="Group_3020" data-name="Group 3020" xmlns="http://www.w3.org/2000/svg" width="117.567" height="34.29" viewBox="0 0 117.567 34.29">
  <path id="Path_1" data-name="Path 1" d="M4.316,34.287v-.394q0-10.2.006-20.391c0-.243-.072-.309-.3-.308-1.31.008-2.622,0-4.02,0,.47-.381.879-.718,1.295-1.051.959-.769,1.923-1.532,2.875-2.311A.476.476,0,0,0,4.3,9.5q0-3.9-.011-7.8c0-.269.054-.381.357-.38q3,.021,6,0c.255,0,.34.059.335.33-.018.855-.007,1.712-.007,2.633a1.487,1.487,0,0,0,.249-.128q2.5-2.009,5-4.023c.185-.15.318-.207.544-.018.9.758,1.834,1.486,2.754,2.224q1.681,1.348,3.363,2.7,1.986,1.6,3.968,3.2,1.827,1.473,3.656,2.942c.814.652,1.632,1.3,2.527,2.012H11.428c-.5,0-.449-.048-.449.442q0,10.121,0,20.242v.4Z" transform="translate(0 0)" fill="#0b5aa5"/>
  <path id="Path_2" data-name="Path 2" d="M10.579,24.657V23.125c0-1.106,0-2.212,0-3.319,0-.192-.018-.284.273-.284,2.925.01,5.85-.017,8.775-.034h.059c.534.023.534.023.534-.535V12.386h6.625V32.114H20.218V31.76c0-2.252-.006-4.505.006-6.757,0-.279-.079-.353-.35-.351q-4.466.013-8.93.006Z" transform="translate(1.858 2.176)" fill="#0b5aa5"/>
  <path id="Path_3" data-name="Path 3" d="M96.317,22.6a8.155,8.155,0,0,1-.694,3.563,6.3,6.3,0,0,1-2.945,3.083,8.118,8.118,0,0,1-2.578.759,10.5,10.5,0,0,1-2.644.051,7.157,7.157,0,0,1-4.669-2.126A6.565,6.565,0,0,1,81.1,24.62a9.683,9.683,0,0,1,.29-5.168,6.375,6.375,0,0,1,4.488-4.128,10.2,10.2,0,0,1,3.263-.351,8.084,8.084,0,0,1,4.1,1.17,6.271,6.271,0,0,1,2.5,3.089A8.8,8.8,0,0,1,96.317,22.6ZM91.739,22.6c-.085-.679-.145-1.36-.259-2.033a3.205,3.205,0,0,0-.832-1.717,2.73,2.73,0,0,0-2.166-.745,2.5,2.5,0,0,0-2.546,1.826,8.585,8.585,0,0,0-.173,4.711,2.642,2.642,0,0,0,2.393,2.317A2.743,2.743,0,0,0,91.4,24.91,9.6,9.6,0,0,0,91.739,22.6Z" transform="translate(14.209 2.628)" fill="#0b5aa5"/>
  <path id="Path_4" data-name="Path 4" d="M41.932,22.549a7.924,7.924,0,0,1-.942,4.123,6.277,6.277,0,0,1-2.553,2.51,7.3,7.3,0,0,1-2.443.8,10.639,10.639,0,0,1-2.613.1,9.192,9.192,0,0,1-2.871-.679,6.222,6.222,0,0,1-3.161-3.015,8.038,8.038,0,0,1-.776-2.962,8.9,8.9,0,0,1,.665-4.507,6.217,6.217,0,0,1,2.634-2.908,8.079,8.079,0,0,1,3.378-.995,9.964,9.964,0,0,1,4.347.5,6.224,6.224,0,0,1,3.091,2.41A7.7,7.7,0,0,1,41.932,22.549Zm-10.77.011a6.989,6.989,0,0,0,.365,2.6,2.6,2.6,0,0,0,1.245,1.507,3.369,3.369,0,0,0,2.036.288,2.3,2.3,0,0,0,1.288-.525,3.406,3.406,0,0,0,1.123-2.286c.071-.8.066-1.6.067-2.4a5,5,0,0,0-.4-1.967,2.546,2.546,0,0,0-1.42-1.5,4.036,4.036,0,0,0-1.628-.175,2.314,2.314,0,0,0-2.074,1.336A6.163,6.163,0,0,0,31.163,22.56Z" transform="translate(4.66 2.629)" fill="#0b5aa5"/>
  <path id="Path_5" data-name="Path 5" d="M82.037,23.3H71.653a8.5,8.5,0,0,0,.138.924,3.328,3.328,0,0,0,2.86,2.51,9.2,9.2,0,0,0,1.926.176A8.393,8.393,0,0,0,80.54,25.76c.248-.14.477-.316.73-.446a1.651,1.651,0,0,1,.452-.082c.011.12.025.2.025.288,0,1.026-.006,2.053,0,3.079a.306.306,0,0,1-.233.34,14.642,14.642,0,0,1-3.6.952,15.84,15.84,0,0,1-3.648.045,8.949,8.949,0,0,1-4.241-1.412,6.13,6.13,0,0,1-2.56-3.691,9.6,9.6,0,0,1-.139-3.777,7.022,7.022,0,0,1,1.479-3.448,6.759,6.759,0,0,1,3.54-2.272,10.575,10.575,0,0,1,3.818-.323,7.418,7.418,0,0,1,3.076.893,5.065,5.065,0,0,1,2.217,2.571,7.975,7.975,0,0,1,.574,3.1C82.037,22.138,82.037,22.7,82.037,23.3ZM71.676,20.691c.093.008.16.018.229.018,1.792,0,3.585,0,5.377.006.23,0,.333-.062.3-.3-.025-.176-.031-.356-.063-.53a2.212,2.212,0,0,0-1.3-1.848,3.644,3.644,0,0,0-3.292.206A2.618,2.618,0,0,0,71.676,20.691Z" transform="translate(11.807 2.629)" fill="#0b5aa5"/>
  <path id="Path_6" data-name="Path 6" d="M41.075,15.39h4.392v.367c0,2.163-.01,4.326.006,6.488a19.843,19.843,0,0,0,.12,2.231,1.82,1.82,0,0,0,1.943,1.889,4.837,4.837,0,0,0,2.972-.745.39.39,0,0,0,.2-.411q0-4.709,0-9.418v-.4h4.462v.323q0,6.743.007,13.485c0,.31-.092.382-.385.378-1.252-.016-2.5-.007-3.756-.007H50.7V28.017c-.174.1-.286.168-.394.236-.591.374-1.174.759-1.771,1.12a4.759,4.759,0,0,1-2.127.607,5.73,5.73,0,0,1-2.739-.4,3.946,3.946,0,0,1-2.218-2.359,6.327,6.327,0,0,1-.393-2.241q0-4.679,0-9.359A1.879,1.879,0,0,1,41.075,15.39Z" transform="translate(7.213 2.704)" fill="#0b5aa5"/>
  <path id="Path_7" data-name="Path 7" d="M62.247,18.623H55.323v-3.23h12.7c.006.079.018.165.018.25,0,.738.011,1.474-.007,2.212a.79.79,0,0,1-.183.471q-2.705,2.978-5.429,5.939c-.486.53-.977,1.057-1.456,1.594a1.68,1.68,0,0,0-.183.371h7.355V29.57h-.314q-6.253,0-12.506.007c-.305,0-.385-.087-.376-.387.021-.736,0-1.474.015-2.212a.778.778,0,0,1,.184-.47q2.538-2.77,5.1-5.521c.623-.673,1.249-1.345,1.869-2.021A2.532,2.532,0,0,0,62.3,18.7Z" transform="translate(9.652 2.704)" fill="#0b5aa5"/>
  <path id="Path_8" data-name="Path 8" d="M95.348,22.548c0-1.594.014-3.187,0-4.782a2.85,2.85,0,0,1,1.73-2.61,2.518,2.518,0,0,1,2.654.4,2.806,2.806,0,0,1,1.084,2.356q.011,4.677,0,9.353a2.821,2.821,0,0,1-1.845,2.768,2.52,2.52,0,0,1-2.564-.449,2.711,2.711,0,0,1-1.051-2.194C95.34,25.777,95.348,24.163,95.348,22.548Zm4.068,3.757a1.14,1.14,0,0,0,.07-1.672c.312-.078.375-.329.223-.845-.751,0-1.508-.006-2.265,0-.691.007-.626-.13-.642.659,0,.214.074.279.275.274.414-.01.828-.013,1.24,0a1.343,1.343,0,0,1,.482.1.315.315,0,0,1,.047.581.769.769,0,0,1-.353.116c-.344.018-.688.01-1.033.016-.751.013-.633-.113-.656.669-.007.231.078.286.293.279.482-.014.964-.011,1.447,0a.425.425,0,0,1,.46.426c-.036.267-.233.343-.471.343-.364,0-.729,0-1.093,0-.669.01-.629-.137-.633.669,0,.185.052.268.251.265.591-.011,1.182.01,1.771-.014A1.128,1.128,0,0,0,99.405,28,1.068,1.068,0,0,0,99.416,26.306Zm-1.153-3.021a1.38,1.38,0,0,0,1.553-1.462,1.441,1.441,0,0,0-1.533-1.568,1.515,1.515,0,0,0-.02,3.029ZM97.579,19.9c-.029-.895.187-1.27.725-1.28.5-.008.718.378.7,1.25.623.322.783.236.8-.459a1.605,1.605,0,0,0-.631-1.49,1.565,1.565,0,0,0-1.78-.038,1.441,1.441,0,0,0-.629,1.472C96.8,20.113,96.866,20.153,97.579,19.9Zm-.255-2.6c.38,0,.6-.178.6-.49a.556.556,0,0,0-.592-.586.535.535,0,0,0-.58.564C96.753,17.119,96.961,17.305,97.324,17.305Z" transform="translate(16.749 2.625)" fill="#0b5aa5"/>
  <path id="Path_9" data-name="Path 9" d="M97.956,21.4c-.475-.031-.8-.251-.8-.559s.355-.553.825-.538a.92.92,0,0,1,.479.1c.138.1.3.293.291.436a.74.74,0,0,1-.322.446A1.282,1.282,0,0,1,97.956,21.4Z" transform="translate(17.068 3.566)" fill="#0b5aa5"/>
</svg>
